<svg width="30" height="30" viewBox="0 0 30 30" fill="none" xmlns="http://www.w3.org/2000/svg">
<path fill-rule="evenodd" clip-rule="evenodd" d="M0 15C0 6.71573 6.71573 0 15 0C23.2843 0 30 6.71573 30 15C30 23.2843 23.2843 30 15 30C6.71573 30 0 23.2843 0 15Z" fill="#666666"/>
<path fill-rule="evenodd" clip-rule="evenodd" d="M15.0005 7C10.5825 7 7 10.5816 7 15.0005C7 18.2754 8.97001 21.0902 11.7896 22.3273C11.767 21.7694 11.7858 21.0977 11.9279 20.49C12.0821 19.8408 12.9571 16.1313 12.9571 16.1313C12.9571 16.1313 12.7021 15.6205 12.7021 14.865C12.7021 13.6796 13.3898 12.7943 14.245 12.7943C14.9722 12.7943 15.3241 13.3409 15.3241 13.9957C15.3241 14.7267 14.8575 15.8208 14.6176 16.8341C14.4172 17.6836 15.0428 18.3751 15.8801 18.3751C17.3957 18.3751 18.4165 16.4286 18.4165 14.1218C18.4165 12.3691 17.2358 11.0567 15.088 11.0567C12.6617 11.0567 11.1498 12.8658 11.1498 14.8866C11.1498 15.5847 11.3549 16.0758 11.6767 16.4559C11.8253 16.6318 11.8451 16.7014 11.7914 16.9027C11.7538 17.0486 11.6654 17.4042 11.6287 17.5444C11.5751 17.7466 11.4114 17.82 11.2288 17.7448C10.1102 17.2885 9.58999 16.0645 9.58999 14.6881C9.58999 12.4161 11.5064 9.68972 15.3072 9.68972C18.3619 9.68972 20.3724 11.9015 20.3724 14.2732C20.3724 17.4117 18.6282 19.7562 16.0551 19.7562C15.1924 19.7562 14.3795 19.2895 14.1011 18.7599C14.1011 18.7599 13.6363 20.6029 13.5385 20.9585C13.3691 21.5747 13.037 22.1919 12.7332 22.6717C13.4529 22.8843 14.213 23 15.0005 23C19.4184 23 23 19.4184 23 15.0005C23 10.5816 19.4184 7 15.0005 7Z" fill="white"/>
</svg>
