<svg width="30" height="30" viewBox="0 0 30 30" fill="none" xmlns="http://www.w3.org/2000/svg">
<path fill-rule="evenodd" clip-rule="evenodd" d="M0 15C0 6.71573 6.71573 0 15 0C23.2843 0 30 6.71573 30 15C30 23.2843 23.2843 30 15 30C6.71573 30 0 23.2843 0 15Z" fill="#666666"/>
<path fill-rule="evenodd" clip-rule="evenodd" d="M21.1006 12.2891C21.1056 12.4161 21.1096 12.5431 21.1096 12.6721C21.1096 16.5761 18.1366 21.0781 12.7026 21.0781C11.0346 21.0781 9.48058 20.5881 8.17358 19.7501C8.40658 19.7771 8.64158 19.7911 8.87958 19.7911C10.2636 19.7911 11.5376 19.3181 12.5486 18.5251C11.2556 18.5021 10.1656 17.6481 9.78758 16.4751C9.96858 16.5101 10.1546 16.5271 10.3446 16.5271C10.6136 16.5271 10.8746 16.4921 11.1226 16.4241C9.77158 16.1521 8.75158 14.9591 8.75158 13.5271V13.4901C9.15058 13.7111 9.60758 13.8441 10.0916 13.8591C9.29858 13.3301 8.77758 12.4261 8.77758 11.4001C8.77758 10.8591 8.92258 10.3521 9.17658 9.91612C10.6326 11.7031 12.8106 12.8791 15.2656 13.0021C15.2156 12.7851 15.1906 12.5601 15.1906 12.3281C15.1906 10.6971 16.5126 9.37512 18.1446 9.37512C18.9936 9.37512 19.7616 9.73212 20.2996 10.3071C20.9736 10.1761 21.6056 9.93012 22.1766 9.59012C21.9556 10.2811 21.4886 10.8591 20.8766 11.2251C21.4746 11.1541 22.0446 10.9961 22.5756 10.7601C22.1776 11.3521 21.6776 11.8731 21.1006 12.2891Z" fill="white"/>
</svg>
