<svg width="15" height="13" viewBox="0 0 15 13" fill="none" xmlns="http://www.w3.org/2000/svg">
<path fill-rule="evenodd" clip-rule="evenodd" d="M13.1006 3.28912C13.1056 3.41612 13.1096 3.54312 13.1096 3.67212C13.1096 7.57612 10.1366 12.0781 4.70258 12.0781C3.03458 12.0781 1.48058 11.5881 0.173584 10.7501C0.406584 10.7771 0.641584 10.7911 0.879584 10.7911C2.26358 10.7911 3.53758 10.3181 4.54858 9.52512C3.25558 9.50212 2.16558 8.64812 1.78758 7.47512C1.96858 7.51012 2.15458 7.52712 2.34458 7.52712C2.61358 7.52712 2.87458 7.49212 3.12258 7.42412C1.77158 7.15212 0.751584 5.95912 0.751584 4.52712V4.49012C1.15058 4.71112 1.60758 4.84412 2.09158 4.85912C1.29858 4.33012 0.777584 3.42612 0.777584 2.40012C0.777584 1.85912 0.922584 1.35212 1.17658 0.916122C2.63258 2.70312 4.81058 3.87912 7.26558 4.00212C7.21558 3.78512 7.19058 3.56012 7.19058 3.32812C7.19058 1.69712 8.51258 0.375122 10.1446 0.375122C10.9936 0.375122 11.7616 0.732122 12.2996 1.30712C12.9736 1.17612 13.6056 0.930122 14.1766 0.590122C13.9556 1.28112 13.4886 1.85912 12.8766 2.22512C13.4746 2.15412 14.0446 1.99612 14.5756 1.76012C14.1776 2.35212 13.6776 2.87312 13.1006 3.28912Z" fill="white"/>
</svg>
